<svg width="102" height="36" viewBox="0 0 102 36" fill="none" xmlns="http://www.w3.org/2000/svg">
<path d="M12.5274 0.0152547C13.933 -0.0238245 15.7756 0.0179605 17.1758 0.0753131C17.6147 0.0931009 17.3925 0.172613 17.6954 0.188472C18.2879 0.219387 18.8399 0.180391 19.4254 0.217219C19.6195 0.229814 19.3779 0.355761 19.5814 0.366084C20.6964 0.421745 21.7512 0.389665 22.8806 0.416438C28.4441 0.548528 33.9128 0.595807 39.5443 0.653192C41.4012 0.672006 43.6585 0.786308 45.5764 0.736322C45.8003 0.730373 45.6668 0.619823 45.7094 0.610712C46.3775 0.471225 46.1554 0.694402 46.5916 0.724054C48.323 0.841131 50.2484 0.851313 51.9146 0.808648C52.6235 0.790173 51.9127 0.570593 52.6265 0.693841C52.6761 0.702169 52.4962 0.819565 52.6906 0.832086C53.1315 0.860247 53.9679 0.839264 54.3096 0.848565C54.9681 0.867085 55.0771 0.865904 55.6999 0.867242C56.5514 0.870092 57.5641 0.928449 58.4777 0.901849C58.6727 0.895822 58.4146 0.775478 58.7255 0.754999C59.0368 0.734553 59.8603 0.744757 60.1379 0.773126C60.4155 0.801509 60.2973 0.896098 60.3465 0.917779C60.7507 1.10077 61.7033 0.847326 61.8258 0.841058C64.0603 0.73426 65.9765 0.87864 68.074 0.878228C69.6664 0.877609 71.369 0.829944 72.8842 0.83648C74.6893 0.844733 76.2191 0.909946 77.9728 0.898736C78.1578 0.897691 77.9409 0.756194 78.167 0.754632C80.5685 0.738167 82.9533 0.753591 85.3444 0.849114C85.5842 0.858819 85.2752 0.983052 85.5147 1.00018C86.9815 1.10227 89.3025 1.34754 90.1737 0.806634C90.4801 0.813149 90.8068 0.81973 91.1382 0.828917C91.9306 0.846848 92.7436 0.981328 93.3608 1.19347C93.9329 1.39942 93.3335 1.38562 94.056 1.52163C94.2181 1.55646 94.0452 1.38016 94.2876 1.44358C95.3145 1.71531 96.3435 2.26808 97.2336 2.82505C97.4152 2.93845 97.4298 2.81944 97.4907 2.83991C98.0102 3.01756 98.4851 3.79401 98.5939 3.93741C99.4844 5.03113 100.106 5.84315 100.673 7.02051C100.799 7.29574 100.779 6.9093 100.905 7.17578C101.526 8.51488 101.831 10.0579 101.768 11.5C101.766 11.5502 101.764 11.6003 101.761 11.6504C101.747 11.9623 101.626 11.6754 101.612 11.8245C101.556 12.4818 101.786 12.6275 101.736 13.2579C101.726 13.3908 101.622 13.3159 101.61 13.3402C101.431 13.7196 101.685 14.0492 101.691 14.1468C101.767 15.3812 101.502 16.1703 101.54 17.3628C101.544 17.5055 101.676 17.1838 101.681 17.5848C101.712 19.8473 101.691 22.2202 101.62 24.5C101.607 24.9336 101.566 25.359 101.499 25.7775C101.427 26.2003 101.369 25.8831 101.354 25.9088C101.106 26.3086 101.296 26.6236 101.275 26.7658C101.102 27.8681 100.503 28.7234 100.412 29.5222C98.5657 32.8231 94.9084 35.0873 91.1382 34.9523C90.2591 34.9275 89.3806 34.891 88.5028 34.8372C88.4463 34.8341 88.5476 34.7084 88.4349 34.7026C87.078 34.6321 87.3386 34.8274 86.4408 35.0663C86.2146 35.1263 85.5266 34.8379 85.4658 34.8167C85.244 34.7388 85.474 34.5518 85.3997 34.5368C84.7852 34.4183 84.8853 35.0366 84.0563 35.0368C84.0304 35.0358 84.1393 34.922 84.0697 34.9107C83.8535 34.8751 83.6392 34.9203 83.4277 34.8812C82.9435 34.7905 82.7711 34.4901 82.0316 34.6649C81.938 34.6876 82.0809 35.0384 81.3407 35.0218C81.0457 35.0149 79.7395 35.0209 79.3734 34.9982C79.0078 34.9755 79.2589 34.8624 79.2328 34.8576C78.2476 34.7081 78.6212 34.6461 78.1276 34.4249C77.6341 34.2044 77.7709 34.7302 77.5698 34.7889C77.3682 34.8474 76.6459 34.7241 76.4684 34.6812C76.291 34.6383 76.5123 34.5665 76.3545 34.5422C75.3086 34.3837 75.8954 34.8032 75.5508 34.8867C74.7382 35.0843 74.1054 34.6943 73.3615 34.6561C73.1602 34.6458 73.3245 34.7346 73.1452 34.7429C72.4354 34.7746 72.0085 34.653 71.2009 34.7645C71.0688 34.7827 70.4159 35.0171 69.9933 34.8451C69.9335 34.8203 70.1036 34.7231 69.801 34.7014C69.3491 34.6687 68.5348 34.6475 68.049 34.6799C67.6903 34.704 68.1015 34.8641 67.65 34.8143C67.4494 34.7921 67.8212 34.6985 67.4443 34.6646C67.0693 34.6307 66.1106 34.6348 65.7458 34.638C65.3817 34.6413 65.581 34.7628 65.5516 34.7709C65.3735 34.8178 64.6747 34.8764 64.6129 34.8762C61.498 34.8911 58.6255 34.6863 55.5926 34.7541C55.3546 34.7592 55.5132 34.8873 55.4768 34.8894C54.662 34.9431 55.3045 34.6026 54.7353 34.4886C54.8175 34.7485 54.4815 34.7014 53.9076 34.7299C53.631 34.7439 53.7816 34.8445 53.7564 34.8548C53.3462 35.0077 53.0607 34.8102 52.9871 34.7698C52.7155 34.6213 52.4199 34.7968 52.235 34.6975C52.0503 34.599 52.4754 34.4529 51.925 34.4547C51.7706 34.5478 52.1793 34.7909 51.7614 34.8303C50.1845 34.9793 47.2412 34.7886 45.9733 34.7687C44.708 34.7489 44.2993 34.7661 43.562 34.7325C42.2302 34.6717 42.7183 34.8521 41.8914 34.9346C41.062 35.0172 41.4652 34.5734 41.3459 34.478C41.2289 34.3826 41.1011 34.4808 40.9555 34.4284C40.8104 34.3759 41.1246 34.3111 40.7833 34.2914C40.4419 34.2717 39.5083 34.4414 39.3872 34.5411C39.1314 34.7525 39.5521 34.9743 38.6486 34.8964C38.5966 34.8917 38.7652 34.775 38.5663 34.7633C36.9859 34.6734 35.3441 34.6678 33.7657 34.5884C33.5487 34.5773 33.7427 34.4475 33.6164 34.4395C32.3008 34.3565 32.7711 34.5754 32.0501 34.8186C32.212 34.4949 31.8132 34.297 30.8148 34.2951C30.2145 34.2938 30.3179 34.4351 29.9297 34.5347C29.8132 34.5648 29.3885 34.4677 29.3115 34.5342C29.0577 34.7515 29.4578 34.9947 28.4283 34.8978C28.3832 34.8932 28.527 34.7743 28.3709 34.7671C27.3622 34.72 27.2414 34.9472 26.151 34.9747C25.2963 34.9963 23.7762 34.8577 22.803 34.8352C22.8234 34.4714 21.9042 34.5547 21.5313 34.8055C20.8997 34.7953 20.2175 34.8095 19.6071 34.7748C19.397 34.763 19.535 34.6576 19.5085 34.6462C19.1023 34.4677 18.8277 34.7118 18.6913 34.7213C17.2138 34.8143 16.0099 34.6294 14.5998 34.8101C14.5498 34.8166 14.4687 35.0694 14.0917 34.8848C14.0673 34.8721 14.5331 34.7571 13.8697 34.7482C13.2063 34.7393 11.9556 34.6038 11.0346 34.721C10.8658 34.7423 10.5016 34.8651 10.1382 34.8539C10.017 34.8503 9.89637 34.8308 9.7849 34.7881C9.72396 34.7641 9.79367 34.6942 9.70711 34.6504C9.43093 34.5089 9.25323 34.7527 8.94257 34.4991C8.63358 34.2421 8.0115 33.9986 7.10111 33.8619C7.0729 33.8571 6.80067 33.9833 6.52567 33.8738C6.0885 33.7035 5.50746 33.3783 5.08935 33.1303C4.88874 33.012 4.95208 33.1957 4.91606 33.177C3.53139 32.3935 2.73416 31.5107 1.81411 30.1072C1.64543 29.8556 1.03479 29.1627 0.923723 28.5487C0.820675 27.8835 1.58176 28.2826 1.0229 26.9782C0.824873 26.4689 -0.119264 25.8092 0.260127 24.6875C0.255961 24.6251 0.252652 24.5626 0.250182 24.5C0.169947 22.4578 0.361199 20.556 0.221945 18.4991C0.215586 18.4038 -0.0029522 18.1023 2.21878e-05 17.8781C0.0048607 17.5454 0.107002 17.3627 0.11373 17.1251C0.144497 16.1294 0.0571081 15.2183 0.0707007 14.2583C0.0756394 13.8939 0.181252 14.0213 0.187155 13.5866C0.19296 13.1522 0.0538875 12.8625 0.121055 12.2738C0.149772 12.0244 0.251818 11.7751 0.341742 11.5C0.412247 11.2869 0.481404 11.0689 0.513302 10.8188C0.23826 10.779 0.254393 10.3775 0.310622 9.65656C0.322304 9.51789 0.198646 9.64568 0.19937 9.57877C0.201279 9.30316 0.33705 9.07834 0.351685 8.81691C0.355574 8.75319 0.264227 8.72448 0.262852 8.67027C0.242716 8.20115 0.711878 7.5923 0.797237 7.50125C1.11519 7.12817 1.1036 6.88195 1.3267 6.59205C1.55206 6.30935 1.3487 6.80514 1.58479 6.46423C2.07186 5.76096 2.74234 4.8965 3.38086 4.31297C3.63427 4.0801 3.3759 4.14502 3.41009 4.10952C3.92427 3.59321 4.59591 3.29371 4.80461 2.86817C5.57419 3.1819 5.13367 2.56325 6.14896 2.24304C6.23025 2.22029 6.43999 2.46718 6.18141 2.63034C5.92556 2.79316 5.4684 2.91393 5.14477 3.19378C5.06208 3.258 4.75566 3.80936 4.71076 3.86832C4.32265 4.32114 3.9742 4.02557 3.92948 4.02534C3.46144 4.04673 3.16709 4.77559 3.06872 4.92201C2.57718 5.59849 2.11906 6.13832 1.83526 6.77539C1.65463 7.19396 1.91123 7.37001 1.75809 7.67338C1.28662 8.68572 0.757218 9.008 0.938302 10.1482C0.989593 10.3906 1.32659 10.196 1.00489 10.9843C0.9933 11.0149 0.890582 11.2387 0.852923 11.5C0.827427 11.6867 0.825228 11.8856 0.886067 12.0394C0.905174 12.0875 1.00224 12.086 1.01039 12.1494C1.06314 12.5747 0.98581 12.8583 1.02285 13.3216C1.05988 13.7848 1.11509 14.3418 1.08217 14.8707C1.06249 15.1895 0.881637 15.5985 0.837361 15.751C0.709813 16.1819 0.918938 16.6438 0.764485 16.9108C0.609255 17.1799 0.373513 16.6537 0.273215 17.3595C0.5254 17.3857 0.784244 17.4457 1.03786 17.4877C1.02898 19.0345 0.947435 20.5565 0.958576 22.1084C0.96021 22.3008 1.09579 22.1041 1.10103 22.3103C1.11979 23.0681 1.04892 23.7425 1.05571 24.5C1.05672 24.6029 1.06114 24.707 1.06968 24.8125C1.12033 25.449 1.35855 26.1133 1.55627 26.7271C1.36649 27.187 1.78423 28.1048 2.10485 28.7381C2.21509 28.9628 2.141 28.9855 2.20961 29.1541C2.48651 29.7848 2.53714 29.3731 2.6692 29.5051C3.2554 30.0372 2.83432 30.4548 3.51915 31.1485C3.55573 31.1912 4.21554 31.3816 4.29081 31.4131C4.77635 31.6505 4.28815 31.553 4.53579 31.7779C4.99518 32.178 5.32244 32.4823 6.00403 32.7312C6.20619 32.8053 6.72755 32.8342 7.05428 33.1056C7.09765 33.1417 7.03603 33.2278 7.07479 33.2477C7.79206 33.5898 7.90524 33.2695 8.34676 33.258C8.78469 33.2439 9.41909 33.5272 9.55977 33.5953C9.91628 33.7808 9.2743 33.6485 9.25509 33.658C9.00246 33.8249 9.51128 33.8496 9.9011 33.8721C9.9211 34.0032 10.0306 34.0785 10.1382 34.0989C10.2939 34.1275 10.4409 34.0533 10.3179 33.8906C10.3065 33.8761 10.2272 33.8751 10.1382 33.8765C10.0455 33.8782 9.94203 33.8807 9.9011 33.8721C9.97155 33.812 10.0509 33.7623 10.1382 33.7226C10.5116 33.565 11.0335 33.586 11.5981 33.8155C11.9289 33.9501 11.6162 34.1071 12.621 34.0497C13.0771 34.0238 12.9008 33.808 13.3033 33.7492C14.2227 33.615 15.4174 33.8163 16.3652 33.7846C16.7092 33.773 16.3741 33.655 16.6092 33.643C17.2332 33.611 17.7834 33.6996 18.41 33.6542C18.4668 33.6499 18.3281 33.5263 18.5229 33.5247C20.0002 33.5104 21.2865 33.5896 22.8288 33.5917C23.574 33.5928 24.9063 33.5246 25.6783 33.5383C27.0163 33.5613 28.6623 33.7411 29.8053 33.6974C30.5507 33.6694 30.3872 33.5458 30.7066 33.4616C31.323 33.2983 32.4141 33.5908 32.561 33.6361C32.5655 33.6376 31.924 33.6667 32.2663 33.7302C32.4653 33.8624 32.5538 33.6366 32.561 33.6361C32.6575 33.6653 33.939 33.6934 34.1934 33.6698C34.3317 33.6568 34.2543 33.5397 34.3264 33.5352C36.04 33.4303 37.7565 33.4006 39.4944 33.4553C39.525 33.4577 39.4789 33.5887 39.5509 33.5927C40.557 33.6509 41.2012 33.4906 42.0311 33.3955C42.8607 33.3003 43.5187 33.3322 44.0098 33.5571C44.6358 33.5288 45.534 33.6283 46.0508 33.6886C46.5676 33.749 46.6398 33.4939 46.6852 33.4888C48.1036 33.3274 48.9235 33.4734 50.395 33.4962C51.0945 33.5074 52.4822 33.4704 53.2397 33.4425C53.8383 33.42 54.199 33.4798 54.7506 33.4416C54.8252 33.4365 54.7498 33.3229 54.7726 33.3186C55.3882 33.1827 55.0924 33.4603 55.2194 33.5099C55.6802 33.6902 55.965 33.7863 56.7533 33.7014C56.9351 33.682 57.4648 33.2822 57.7963 33.2589C58.2272 33.2292 58.0646 33.3725 58.5158 33.3378C58.5544 33.3349 58.5464 33.2465 58.8249 33.2504C60.1177 33.2674 61.5271 33.3188 62.8705 33.3099C63.054 33.3091 62.8187 33.1689 63.0839 33.1653C64.328 33.1487 65.6916 33.1539 66.9036 33.2195C67.202 33.2361 67.015 33.3343 67.0797 33.3634C67.4773 33.5398 68.0411 33.2835 68.1342 33.2786C70.3533 33.1555 72.0517 33.3874 74.3136 33.277C74.4367 33.2705 75.3844 32.9958 75.8072 33.2314C75.8362 33.2471 76.2545 33.4881 76.6244 33.3233C76.6474 33.313 76.3867 33.1889 76.8416 33.2016C77.2965 33.2142 78.0286 33.1313 78.6539 33.2677C78.8519 33.3106 79.3197 33.5511 79.9102 33.3594C79.9487 33.346 80.8603 32.9126 81.1857 33.2116C81.2385 33.2608 81.1833 33.5773 81.8881 33.4151C82.0227 33.3836 81.7783 33.313 82.133 33.2689C82.6766 33.201 83.3967 33.2858 84.0649 33.1448C84.1814 33.1198 84.6775 32.905 85.0754 33.0681C85.1377 33.0936 85.0193 33.1992 85.2294 33.2111C86.2286 33.2678 87.2749 33.1971 88.2895 33.2702C88.6488 33.2959 88.4651 33.4667 88.8396 33.5125C89.2143 33.5582 89.9691 33.6022 90.361 33.5242C90.7531 33.4461 90.3248 33.1739 90.9122 33.1521C90.9876 33.1493 91.0629 33.1468 91.1382 33.1444C93.2704 33.0745 95.4084 32.408 97.0359 30.9511C97.279 30.727 97.0182 30.8483 97.3569 30.5051C98.7107 29.2712 99.763 26.3283 99.8876 24.7593C99.9046 24.6548 99.9189 24.5692 99.9322 24.5C100.078 23.6472 100.189 25.0725 100.251 24.0723C100.283 23.5455 99.9666 22.9756 99.9566 22.8485C99.8554 21.6062 99.9956 20.7429 99.9526 19.6248C99.9436 19.3939 99.8154 19.6204 99.8092 19.4239C99.7869 18.7527 99.8442 18.0472 99.8337 17.4059C99.8287 17.1181 99.7308 17.1711 99.7383 16.9064C99.7553 16.2729 99.7965 15.7126 99.8883 15.0951C99.8967 15.0388 100.019 15.4183 100.023 14.9496C100.03 14.191 100.121 13.2494 100.027 12.3766C99.9989 12.1177 99.775 12.1075 99.9297 11.5508C99.937 11.5244 99.9565 11.5115 99.9796 11.5C100.056 11.4668 100.185 11.4356 99.9846 10.998C99.9497 10.891 99.5435 9.99965 99.6214 9.51375C99.6468 9.38482 99.7802 9.01666 99.6601 8.75987C99.6432 8.72617 99.5754 8.90454 99.4932 8.6922C99.2029 7.94741 98.8378 7.18587 98.3401 6.53371C98.2067 6.36154 98.2912 6.69567 98.0956 6.4415C97.5596 5.74349 96.7936 4.94967 96.1022 4.42679C95.848 4.23359 96.0871 4.27336 96.0748 4.25104C95.8604 3.88491 95.5311 3.98206 95.4191 3.93428C94.706 3.6339 94.2063 3.30732 93.5092 3.13684C93.3175 3.09216 93.4211 3.24271 93.3807 3.24243C92.9689 3.24189 93.3098 3.11031 93.0656 3.02831C92.4744 2.83479 91.7852 2.75479 91.1382 2.76684C91.0179 2.76854 90.8987 2.77053 90.7813 2.77263C90.4733 2.77832 90.8194 2.91449 90.543 2.91802C88.9069 2.94148 87.2061 2.92845 85.6094 2.85338C85.3088 2.839 85.498 2.73414 85.4353 2.71019C85.0035 2.54264 84.3705 2.77118 84.2249 2.79296C83.5627 2.89236 83.3055 2.79964 82.7207 2.81694C79.864 2.90311 76.3367 2.8417 73.6401 2.80376C70.1262 2.75493 67.3995 2.65518 64.0485 2.68108C63.8356 2.68259 64.0503 2.82209 63.8667 2.82518C61.4964 2.85881 59.1629 2.8043 56.7879 2.84459C56.593 2.84765 56.8739 2.97989 56.5611 2.98924C55.9195 3.00936 55.1067 3.00217 54.4579 2.95995C54.1415 2.9396 54.5659 2.82613 54.2474 2.80797C53.5058 2.76543 52.7108 2.75601 51.9491 2.77721C51.6249 2.78652 52.114 2.92177 51.6926 2.92333C48.8223 2.93674 46.0034 2.96004 43.1029 2.7849C42.904 2.77287 42.7296 2.498 42.3068 2.55071C42.2749 2.62699 42.2767 2.71673 42.2628 2.79827C38.0844 2.84219 33.9487 2.7469 29.7585 2.73217C29.5819 2.73158 29.8872 2.87722 29.5452 2.87682C27.5656 2.87466 25.6433 2.91501 23.6184 2.77025C23.4175 2.75609 23.5205 2.49987 22.9285 2.53862C22.8241 2.54569 21.9323 2.57986 21.7018 2.63549C21.6705 2.64388 21.8332 2.76347 21.5458 2.76696C19.876 2.78512 18.1261 2.75781 16.4592 2.68474C16.1901 2.67272 16.4766 2.54536 16.285 2.53569C14.9258 2.46809 13.4473 2.5649 12.1485 2.44927C11.2791 2.37141 11.601 2.15126 11.139 1.93456C11.0737 1.90399 10.5353 1.89914 10.5075 1.77306C10.436 1.45602 10.6968 1.10886 10.5898 0.770929C10.5672 0.69814 9.8462 0.776538 10.2731 0.600641C10.3029 0.588869 10.8256 0.53049 10.9543 0.47082C11.044 0.429565 10.8825 0.301341 11.0653 0.24853C11.2482 0.195769 11.4492 0.303253 11.7524 0.241206C12.0554 0.178391 11.9222 0.032522 12.5274 0.0152547ZM48.3779 33.9583C48.8564 34.0808 48.9271 33.6322 48.4095 33.7395C48.3844 33.7452 48.3532 33.9523 48.3779 33.9583ZM0.609029 20.5478C0.411146 21.1734 0.702113 21.6015 0.854939 21.1602C1.0076 20.7189 0.669015 20.3572 0.609029 20.5478ZM0.464559 14.0603C0.308538 14.7915 0.94473 14.9066 0.816121 14.1234C0.808853 14.0779 0.473619 14.0175 0.464559 14.0603ZM13.2814 1.87285C13.2748 1.8669 12.8878 1.86109 12.8786 1.86699C12.6725 2.00948 13.4463 2.02099 13.2814 1.87285ZM1.03462 7.78197C0.863445 7.95704 0.750535 8.60475 0.941381 8.37467C1.08754 8.19298 1.23836 7.56745 1.03462 7.78197ZM73.3414 34.4371C73.349 34.4438 73.6264 34.4498 73.6208 34.4121C73.602 34.2903 73.2159 34.3247 73.3414 34.4371ZM9.26353 1.70008C7.70382 1.84603 6.57261 1.68121 8.36419 1.32339C8.68619 1.27396 7.70522 1.62124 8.1216 1.58762C8.86448 1.53118 9.34126 1.15079 10.124 1.3197C10.2565 1.34482 9.34606 1.68394 9.26079 1.70105C9.2617 1.70073 9.26261 1.7004 9.26353 1.70008ZM48.6535 34.4972C48.6631 34.5031 49.0471 34.5088 49.0563 34.5029C49.2643 34.3604 48.4906 34.349 48.6535 34.4972ZM89.5305 34.7145C89.5517 34.7272 90.443 34.739 90.472 34.7274C90.937 34.4944 89.1351 34.4699 89.5305 34.7145ZM22.7877 34.8255C22.3686 34.9688 21.8673 34.9857 21.5332 34.8057C21.9497 34.8153 22.3689 34.8167 22.7877 34.8255Z" fill="#D4BAA3"/>
</svg>
