<?xml version="1.0" encoding="UTF-8"?>
<svg version="1.1" xmlns="http://www.w3.org/2000/svg" width="157" height="163">
<path d="M0 0 C1.97347487 2.89271561 3.74353158 5.72248876 5 9 C3.875 12.4375 3.875 12.4375 2 15 C0.92226346 17.15547309 0.70642746 18.74307106 0.4375 21.125 C0.293125 22.40375 0.14875 23.6825 0 25 C0.99 25.33 1.98 25.66 3 26 C3.33 25.34 3.66 24.68 4 24 C4.66 24 5.32 24 6 24 C6.04898438 23.19175781 6.09796875 22.38351563 6.1484375 21.55078125 C6.22320312 20.48214844 6.29796875 19.41351563 6.375 18.3125 C6.44460937 17.25675781 6.51421875 16.20101562 6.5859375 15.11328125 C7.02150724 11.83828992 7.57679686 8.42320314 10 6 C11.9609375 5.796875 11.9609375 5.796875 14.375 5.75 C15.56222656 5.71132813 15.56222656 5.71132813 16.7734375 5.671875 C19 6 19 6 20.6953125 7.21484375 C23.25839288 10.72181302 23.92004197 14.71558239 24 19 C21.86666667 23.26666667 21.86666667 23.26666667 19 25 C15.69529499 26.03617844 12.43755695 26.61285766 9 27 C8.34 29.31 7.68 31.62 7 34 C7.95261719 33.71125 8.90523437 33.4225 9.88671875 33.125 C11.14097656 32.75375 12.39523438 32.3825 13.6875 32 C15.54955078 31.443125 15.54955078 31.443125 17.44921875 30.875 C20.53022054 30.11576524 22.86934605 29.54873457 26 30 C28.62251316 33.93376974 29.29600176 37.28797198 29 42 C27.80221301 45.17508614 26.86473642 45.82280032 24 48 C20.83955026 48.29374232 18.02595249 47.95118349 15 47 C14.34 46.34 13.68 45.68 13 45 C13 44.01 13 43.02 13 42 C11.02 42 9.04 42 7 42 C7.4419196 46.64015578 7.96283119 51.09374057 9.0625 55.625 C9.97632536 59.48859986 10.07507279 63.02114188 10 67 C10.17402344 67.91910156 10.34804687 68.83820313 10.52734375 69.78515625 C11.03937327 73.26780328 10.85446405 76.25369554 10.5 79.75 C9.87282378 84.02699114 9.87282378 84.02699114 11 88 C13.55379832 86.40387605 15.20571739 85.3516781 17 83 C17.29514239 80.55389564 17.11568436 78.29670687 16.953125 75.83984375 C17.0470503 70.14953621 18.91630633 63.08369367 23 59 C25.625 58.875 25.625 58.875 28 59 C28.66 57.68 29.32 56.36 30 55 C34.40147657 55.50302589 36.75395419 57.02445801 40 60 C40.33 60.66 40.66 61.32 41 62 C42.35930687 59.28138626 41.84140716 57.5105904 41.5 54.5 C40.20205828 40.30803193 40.20205828 40.30803193 43.390625 36.21484375 C45 35 45 35 47.5 35.125 C50.31976237 36.11191683 51.32818733 36.53208607 53 39 C55.22007238 45.43820989 55.81977365 51.50461857 53.2109375 57.94921875 C51.07169718 61.95812033 48.22457456 64.86028266 45 68 C44.5359375 68.99 44.5359375 68.99 44.0625 70 C42.4124301 73.10601393 39.7230921 74.83264098 37 77 C36.51789063 77.49371094 36.03578125 77.98742187 35.5390625 78.49609375 C31.68676587 82.26039376 26.88886412 84.80787863 21.8125 86.5 C17.92710859 87.83584184 15.71542321 89.88524985 13 93 C12.34 93.66 11.68 94.32 11 95 C10.77090581 96.96366453 10.5443685 98.92775349 10.34375 100.89453125 C9.84162822 103.97002713 8.61059765 106.35861985 7 109 C6.01 109.495 6.01 109.495 5 110 C4.01 109.34 3.02 108.68 2 108 C1.01 108.495 1.01 108.495 0 109 C-0.89741395 105.63469767 -1.01646572 102.57843416 -0.9375 99.125 C-0.90392607 94.62609398 -1.26319573 91.16833026 -3 87 C-4.81701858 85.59145334 -4.81701858 85.59145334 -7 85 C-7.66 84.62875 -8.32 84.2575 -9 83.875 C-11.24693303 82.73278744 -11.24693303 82.73278744 -15 83 C-15 82.01 -15 81.02 -15 80 C-15.7734375 80.5878125 -15.7734375 80.5878125 -16.5625 81.1875 C-19.71008898 82.23669633 -21.2990333 81.32868871 -24.20703125 79.93359375 C-25.82968655 79.08868173 -27.44645732 78.23249203 -29.0625 77.375 C-31.9227295 75.86379486 -31.9227295 75.86379486 -35 75.5625 C-39.69878764 74.68147732 -42.7271918 72.2728082 -46.0625 68.9375 C-49.64596869 63.50449909 -53.5980017 57.36207826 -53.125 50.625 C-51.80797493 46.38125256 -50.53150202 44.66824597 -47 42 C-43.6875 40.6875 -43.6875 40.6875 -41 40 C-39.07136286 41.84258246 -38.07990406 43.34878977 -37.75244141 46.01757812 C-37.70494505 48.43427459 -37.73888696 50.83398212 -37.8125 53.25 C-37.82603516 54.09046875 -37.83957031 54.9309375 -37.85351562 55.796875 C-37.88876536 57.86485938 -37.9425698 59.93251271 -38 62 C-37.01 60.68 -36.02 59.36 -35 58 C-31.535 58.495 -31.535 58.495 -28 59 C-27.01 61.64 -26.02 64.28 -25 67 C-24.278125 66.649375 -23.55625 66.29875 -22.8125 65.9375 C-19.62731135 64.87577045 -18.16473738 65.00060925 -15 66 C-12 68 -12 68 -11.3125 70.625 C-11.1578125 71.800625 -11.1578125 71.800625 -11 73 C-10.11248047 73.11214844 -10.11248047 73.11214844 -9.20703125 73.2265625 C-8.41683594 73.35804687 -7.62664062 73.48953125 -6.8125 73.625 C-5.64654297 73.79902344 -5.64654297 73.79902344 -4.45703125 73.9765625 C-0.84067195 75.48289976 0.65461665 77.89226292 3 81 C5.35350973 67.23127651 5.35350973 67.23127651 2 54 C1.63128912 52.34080104 1.28718326 50.6752357 1 49 C0.79375 48.278125 0.5875 47.55625 0.375 46.8125 C0 45 0 45 1 43 C0.05125 43.020625 -0.8975 43.04125 -1.875 43.0625 C-5 43 -5 43 -7 42 C-7.33 44.31 -7.66 46.62 -8 49 C-7.34 49 -6.68 49 -6 49 C-6.54723683 52.37462715 -7.0549 54.08235 -9 57 C-13.23402652 58.46562457 -17.53243815 59.59385801 -22 60 C-25 58 -25 58 -25.58203125 55.828125 C-26.48134789 45.76797273 -26.48134789 45.76797273 -24 42 C-21.84765625 41.32421875 -21.84765625 41.32421875 -19.25 40.75 C-15.87940163 39.9426128 -14.37926567 39.4475806 -12.11328125 36.7734375 C-10.62160005 34.22593157 -9.29398871 31.6524753 -8 29 C-7.44054687 28.11441406 -6.88109375 27.22882812 -6.3046875 26.31640625 C-4.70491184 24.10113704 -4.70491184 24.10113704 -5.5625 21.8125 C-7.20863307 19.73694091 -8.59637941 19.05158401 -11 18 C-13 16 -13 16 -13.265625 14.01171875 C-13.20938137 5.64547927 -13.20938137 5.64547927 -11 2 C-7.64048876 -0.61295319 -4.10655516 -0.15794443 0 0 Z " fill="#E55644" transform="translate(79,29)"/>
<path d="M0 0 C3.09260366 0.77315091 4.6657756 1.63120067 6.8125 4 C8 6 8 6 8 8 C8.99 8.33 9.98 8.66 11 9 C15.77272727 13.31818182 15.77272727 13.31818182 17 17 C18.91666667 18.16666667 18.91666667 18.16666667 21 19 C21.66 19.33 22.32 19.66 23 20 C23 20.66 23 21.32 23 22 C24.485 22.495 24.485 22.495 26 23 C26 23.66 26 24.32 26 25 C26.66 25 27.32 25 28 25 C28.495 26.485 28.495 26.485 29 28 C30.31266518 29.35368596 31.64567325 30.68799596 33 32 C33.33 32.66 33.66 33.32 34 34 C34.825 34.474375 35.65 34.94875 36.5 35.4375 C39 37 39 37 40 40 C40.66 40 41.32 40 42 40 C42.2475 40.969375 42.495 41.93875 42.75 42.9375 C43.1625 43.948125 43.575 44.95875 44 46 C45.92638012 46.75243555 45.92638012 46.75243555 48 47 C49.5625 48.4375 49.5625 48.4375 51 50 C51.99 50.66 52.98 51.32 54 52 C54.28875 52.598125 54.5775 53.19625 54.875 53.8125 C56.06112146 56.11884729 57.50490476 57.59244646 59.3671875 59.37109375 C62.38624887 62.38293249 65.17375351 65.61158587 68.01171875 68.79296875 C70.2721002 71.30203657 72.17151887 73.11434591 75 75 C76.0603902 78.37999377 76.61580085 80.74405834 75.01171875 84.015625 C73.76416642 85.82623192 72.57859467 87.46797155 71 89 C70.34 89 69.68 89 69 89 C68.67 90.32 68.34 91.64 68 93 C66.68 93.33 65.36 93.66 64 94 C63.814375 95.216875 63.62875 96.43375 63.4375 97.6875 C62.36037155 102.12089825 60.46518329 103.52694214 56.6796875 105.8359375 C54.35493469 107.44704526 53.33001765 109.54996749 52 112 C51.34 112 50.68 112 50 112 C49.731875 112.7425 49.46375 113.485 49.1875 114.25 C48.04723249 116.89061949 46.90619694 118.85552844 45 121 C44.34 121 43.68 121 43 121 C42.7215625 121.99 42.7215625 121.99 42.4375 123 C40.39242816 127.26797601 37.51454036 130.82653318 34 134 C31.7734375 134.734375 31.7734375 134.734375 30 135 C29.938125 135.556875 29.87625 136.11375 29.8125 136.6875 C28.6523629 139.98942866 26.54440205 141.62907991 24 144 C21.41425404 146.52267899 19.03193948 148.95893495 16.8125 151.8125 C16.214375 152.534375 15.61625 153.25625 15 154 C14.34 154 13.68 154 13 154 C12.773125 154.7425 12.54625 155.485 12.3125 156.25 C10.72960669 159.56653836 9.08697652 161.04240513 6 163 C3 162 3 162 1 160 C0.01 159.67 -0.98 159.34 -2 159 C-2.8971875 157.6078125 -2.8971875 157.6078125 -3.8125 156.1875 C-6.21572964 152.68565109 -8.47822244 151.29993636 -12 149 C-12.9084157 147.96592449 -13.78390728 146.90203857 -14.625 145.8125 C-16.63195236 142.87430347 -16.63195236 142.87430347 -19.0625 142.5 C-22.30620137 141.66291577 -23.26776411 138.72958383 -25 136 C-28.09674961 132.58563504 -31.04844222 130.31310699 -35 128 C-45.41509434 119.75471698 -45.41509434 119.75471698 -47 115 C-48.65948148 113.98812105 -50.32580562 112.9873454 -52 112 C-52 111.34 -52 110.68 -52 110 C-53.32 109.34 -54.64 108.68 -56 108 C-56 107.34 -56 106.68 -56 106 C-57.32 105.34 -58.64 104.68 -60 104 C-60 103.34 -60 102.68 -60 102 C-60.639375 101.731875 -61.27875 101.46375 -61.9375 101.1875 C-64 100 -64 100 -65 97 C-65.8971875 96.814375 -65.8971875 96.814375 -66.8125 96.625 C-69.98338823 95.71903194 -70.9931613 93.55415834 -73 91 C-73.886875 90.484375 -74.77375 89.96875 -75.6875 89.4375 C-78 88 -78 88 -78.6875 85.875 C-78.790625 85.25625 -78.89375 84.6375 -79 84 C-79.66 83.67 -80.32 83.34 -81 83 C-80.82701599 80.66471585 -80.29774631 79.30822418 -78.66796875 77.62109375 C-74.42788462 74 -74.42788462 74 -72 74 C-71.67 73.01 -71.34 72.02 -71 71 C-69.37897032 69.28891311 -67.70496537 67.62746694 -66 66 C-65.195625 65.175 -64.39125 64.35 -63.5625 63.5 C-55.875 56 -55.875 56 -53 56 C-52.77183594 55.27296875 -52.54367188 54.5459375 -52.30859375 53.796875 C-50.73432547 50.43217025 -48.84950886 48.68914432 -46.0625 46.25 C-44.74958984 45.08210938 -44.74958984 45.08210938 -43.41015625 43.890625 C-41 42 -41 42 -38 41 C-37.71125 40.236875 -37.4225 39.47375 -37.125 38.6875 C-35.72214939 35.33624577 -33.97946197 34.01113683 -31 32 C-30.34 32 -29.68 32 -29 32 C-28.505 30.515 -28.505 30.515 -28 29 C-24.55555556 26 -24.55555556 26 -22 26 C-21.62488281 25.13375 -21.62488281 25.13375 -21.2421875 24.25 C-19.83318248 21.69783995 -18.21888237 20.02276938 -16.125 18 C-15.44695312 17.34 -14.76890625 16.68 -14.0703125 16 C-13.38710937 15.34 -12.70390625 14.68 -12 14 C-10.94425781 12.88625 -10.94425781 12.88625 -9.8671875 11.75 C-8 10 -8 10 -6 10 C-6 9.34 -6 8.68 -6 8 C-5.34 7.67 -4.68 7.34 -4 7 C-3.855625 6.195625 -3.71125 5.39125 -3.5625 4.5625 C-3 2 -3 2 0 0 Z M2 7 C1.67 7.99 1.34 8.98 1 10 C0.38769531 10.15082031 -0.22460938 10.30164063 -0.85546875 10.45703125 C-3.68973536 11.17463245 -4.50576374 12.42368965 -6.3125 14.6875 C-9.18527436 18.15099636 -12.1831065 20.99462006 -15.71484375 23.7734375 C-16.13894531 24.17820312 -16.56304687 24.58296875 -17 25 C-17 25.66 -17 26.32 -17 27 C-17.66 27 -18.32 27 -19 27 C-19 27.66 -19 28.32 -19 29 C-19.86625 29.39251953 -19.86625 29.39251953 -20.75 29.79296875 C-26.52023464 32.88845921 -31.06465647 37.85378154 -35 43 C-35.99 43.495 -35.99 43.495 -37 44 C-37 44.99 -37 45.98 -37 47 C-41 49 -41 49 -43.0625 49.8125 C-45.21942813 50.92915017 -45.21942813 50.92915017 -46.5 53.5 C-48.18299988 56.30499979 -49.11398053 56.68817297 -52 58 C-54.25065102 59.91666921 -54.25065102 59.91666921 -56 62 C-56 62.66 -56 63.32 -56 64 C-56.66 64 -57.32 64 -58 64 C-59.72641566 65.62966382 -61.36366686 67.28376453 -63 69 C-64.03511393 70.04040018 -65.07295768 71.07809033 -66.11328125 72.11328125 C-66.63857422 72.63857422 -67.16386719 73.16386719 -67.70507812 73.70507812 C-70.13671875 76.13671875 -72.56835938 78.56835938 -75 81 C-72.5537814 83.48297314 -70.18768881 85.85351117 -67.4375 88 C-65 90 -65 90 -63.25 92.3125 C-61.16665797 94.80093631 -59.27038151 96.38954253 -56.6875 98.3125 C-53.49314111 100.70696214 -50.91179469 103.10669742 -48.375 106.1875 C-46.14606832 108.88513227 -44.21698332 110.66595604 -41.125 112.3125 C-38 114 -38 114 -37 117 C-35.67452141 117.68215007 -34.34013497 118.34711373 -33 119 C-31.3671875 120.7265625 -31.3671875 120.7265625 -29.875 122.625 C-28.43831282 124.50450961 -28.43831282 124.50450961 -27 126 C-26.34 126 -25.68 126 -25 126 C-24.67 126.99 -24.34 127.98 -24 129 C-21.85038218 130.94946422 -21.85038218 130.94946422 -19.25 132.875 C-15.57131541 135.73562017 -12.25478793 138.65955976 -9 142 C-6.90698922 143.83639643 -4.79579277 145.64867944 -2.671875 147.44921875 C-1 149 -1 149 0 151 C2.02463255 151.65213292 2.02463255 151.65213292 4 152 C4.58007812 151.28714844 5.16015625 150.57429687 5.7578125 149.83984375 C12.90609503 141.07553036 12.90609503 141.07553036 16.3125 137.1875 C18.08305896 135.15642283 19.42975641 133.31238974 20.875 131 C22.7800979 128.31045002 24.37156379 126.74999006 26.875 124.6875 C30.66905744 121.52813618 33.09411028 118.16271156 35.578125 113.91796875 C37.2026973 111.72658139 38.56731047 111.14394329 41 110 C43.98230074 106.37376324 43.98230074 106.37376324 45 102 C45.66 102 46.32 102 47 102 C49.09432063 99.54302645 50.99406351 96.96609775 52.9296875 94.3828125 C54.94094039 92.06797427 56.30796557 91.28443473 59 90 C59.4021875 88.6078125 59.4021875 88.6078125 59.8125 87.1875 C61.27164955 83.27083543 62.96758366 82.27740781 66.44140625 80.17578125 C68.31785162 78.99128629 68.31785162 78.99128629 69 76 C67.91078543 74.08931987 67.91078543 74.08931987 66.25 72.3125 C65.45335937 71.37857422 65.45335937 71.37857422 64.640625 70.42578125 C62.98486588 68.67202189 62.98486588 68.67202189 60 69 C59.94328125 68.43023437 59.8865625 67.86046875 59.828125 67.2734375 C58.62848259 63.98007956 56.51428521 62.73147402 53.75 60.625 C48.94221972 56.8274148 44.60191904 53.39229914 41.9375 47.75 C40.71273067 45.46376392 39.31587287 45.04587807 37 44 C36.67 43.34 36.34 42.68 36 42 C35.34 42 34.68 42 34 42 C34 41.34 34 40.68 34 40 C33.34 40 32.68 40 32 40 C31.938125 39.4225 31.87625 38.845 31.8125 38.25 C30.6812921 35.11742429 28.62052199 33.96539149 26 32 C25.505 31.01 25.505 31.01 25 30 C23.515 29.505 23.515 29.505 22 29 C19.48043136 26.73238822 17.38606752 24.67388432 15.6953125 21.72265625 C13.59251513 18.34558305 11.08145782 15.58777967 8.375 12.6875 C7.87226562 12.13771484 7.36953125 11.58792969 6.8515625 11.02148438 C5.59174471 9.65837508 4.29866002 8.32615608 3 7 C2.67 7 2.34 7 2 7 Z " fill="#E65745" transform="translate(81,0)"/>
<path d="M0 0 C3.02116333 0.1770436 5.99598232 0.61920903 9 1 C10.32 5.62 11.64 10.24 13 15 C-0.5 19.5 -0.5 19.5 -6 19 C-9 17 -9 17 -9.875 13.25 C-10.23296791 9.06101377 -9.5469325 6.45068274 -7 3 C-3.875 1.6875 -3.875 1.6875 -1 1 C-0.67 0.67 -0.34 0.34 0 0 Z " fill="#E65644" transform="translate(56,47)"/>
<path d="" fill="#E85D46" transform="translate(0,0)"/>
<path d="" fill="#E85D46" transform="translate(0,0)"/>
<path d="" fill="#E85D46" transform="translate(0,0)"/>
</svg>
