<svg width="977" height="445" viewBox="0 0 977 445" fill="none" xmlns="http://www.w3.org/2000/svg">
<path d="M251 0C251 16.5685 264.431 30 281 30C297.569 30 311 16.5685 311 0H947C947 16.5685 960.431 30 977 30V52C970.925 52 966 56.9249 966 63C966 69.0751 970.925 74 977 74V92C970.925 92 966 96.9249 966 103C966 109.075 970.925 114 977 114V132C970.925 132 966 136.925 966 143C966 149.075 970.925 154 977 154V172C970.925 172 966 176.925 966 183C966 189.075 970.925 194 977 194V212C970.925 212 966 216.925 966 223C966 229.075 970.925 234 977 234V252C970.925 252 966 256.925 966 263C966 269.075 970.925 274 977 274V292C970.925 292 966 296.925 966 303C966 309.075 970.925 314 977 314V332C970.925 332 966 336.925 966 343C966 349.075 970.925 354 977 354V372C970.925 372 966 376.925 966 383C966 389.075 970.925 394 977 394V415C960.431 415 947 428.431 947 445H311C311 428.431 297.569 415 281 415C264.431 415 251 428.431 251 445H30C30 428.431 16.5685 415 0 415V394C6.07513 394 11 389.075 11 383C11 376.925 6.07513 372 0 372V354C6.07513 354 11 349.075 11 343C11 336.925 6.07513 332 0 332V314C6.07513 314 11 309.075 11 303C11 296.925 6.07513 292 0 292V274C6.07513 274 11 269.075 11 263C11 256.925 6.07513 252 0 252V234C6.07513 234 11 229.075 11 223C11 216.925 6.07513 212 0 212V194C6.07513 194 11 189.075 11 183C11 176.925 6.07513 172 0 172V154C6.07513 154 11 149.075 11 143C11 136.925 6.07513 132 0 132V114C6.07513 114 11 109.075 11 103C11 96.9249 6.07513 92 0 92V74C6.07513 74 11 69.0751 11 63C11 56.9249 6.07513 52 0 52V30C16.5685 30 30 16.5685 30 0H251ZM281.5 393C278.462 393 276 395.462 276 398.5C276 401.538 278.462 404 281.5 404C284.538 404 287 401.538 287 398.5C287 395.462 284.538 393 281.5 393ZM281.5 371C278.462 371 276 373.462 276 376.5C276 379.538 278.462 382 281.5 382C284.538 382 287 379.538 287 376.5C287 373.462 284.538 371 281.5 371ZM281.5 349C278.462 349 276 351.462 276 354.5C276 357.538 278.462 360 281.5 360C284.538 360 287 357.538 287 354.5C287 351.462 284.538 349 281.5 349ZM281.5 327C278.462 327 276 329.462 276 332.5C276 335.538 278.462 338 281.5 338C284.538 338 287 335.538 287 332.5C287 329.462 284.538 327 281.5 327ZM281.5 305C278.462 305 276 307.462 276 310.5C276 313.538 278.462 316 281.5 316C284.538 316 287 313.538 287 310.5C287 307.462 284.538 305 281.5 305ZM281.5 283C278.462 283 276 285.462 276 288.5C276 291.538 278.462 294 281.5 294C284.538 294 287 291.538 287 288.5C287 285.462 284.538 283 281.5 283ZM281.5 261C278.462 261 276 263.462 276 266.5C276 269.538 278.462 272 281.5 272C284.538 272 287 269.538 287 266.5C287 263.462 284.538 261 281.5 261ZM281.5 239C278.462 239 276 241.462 276 244.5C276 247.538 278.462 250 281.5 250C284.538 250 287 247.538 287 244.5C287 241.462 284.538 239 281.5 239ZM281.5 217C278.462 217 276 219.462 276 222.5C276 225.538 278.462 228 281.5 228C284.538 228 287 225.538 287 222.5C287 219.462 284.538 217 281.5 217ZM281.5 195C278.462 195 276 197.462 276 200.5C276 203.538 278.462 206 281.5 206C284.538 206 287 203.538 287 200.5C287 197.462 284.538 195 281.5 195ZM281.5 173C278.462 173 276 175.462 276 178.5C276 181.538 278.462 184 281.5 184C284.538 184 287 181.538 287 178.5C287 175.462 284.538 173 281.5 173ZM281.5 151C278.462 151 276 153.462 276 156.5C276 159.538 278.462 162 281.5 162C284.538 162 287 159.538 287 156.5C287 153.462 284.538 151 281.5 151ZM281.5 129C278.462 129 276 131.462 276 134.5C276 137.538 278.462 140 281.5 140C284.538 140 287 137.538 287 134.5C287 131.462 284.538 129 281.5 129ZM281.5 107C278.462 107 276 109.462 276 112.5C276 115.538 278.462 118 281.5 118C284.538 118 287 115.538 287 112.5C287 109.462 284.538 107 281.5 107ZM281.5 85C278.462 85 276 87.4624 276 90.5C276 93.5376 278.462 96 281.5 96C284.538 96 287 93.5376 287 90.5C287 87.4624 284.538 85 281.5 85ZM281.5 63C278.462 63 276 65.4624 276 68.5C276 71.5376 278.462 74 281.5 74C284.538 74 287 71.5376 287 68.5C287 65.4624 284.538 63 281.5 63ZM281.5 41C278.462 41 276 43.4624 276 46.5C276 49.5376 278.462 52 281.5 52C284.538 52 287 49.5376 287 46.5C287 43.4624 284.538 41 281.5 41Z" fill="#1E1E1E"/>
<rect x="43" y="13" width="195" height="419" fill="#D9D9D9" fill-opacity="0.03" stroke="#E25543" stroke-width="2" stroke-dasharray="4 4"/>
<rect x="324" y="13" width="610" height="419" fill="#D9D9D9" fill-opacity="0.03" stroke="#E25543" stroke-width="2" stroke-dasharray="4 4"/>
</svg>
