<?xml version="1.0" encoding="UTF-8"?>
<svg version="1.1" xmlns="http://www.w3.org/2000/svg" width="2000" height="2000">
<path d="M0 0 C660 0 1320 0 2000 0 C2000 660 2000 1320 2000 2000 C1340 2000 680 2000 0 2000 C0 1340 0 680 0 0 Z " fill="#FEFEFE" transform="translate(0,0)"/>
<path d="M0 0 C293.04 0 586.08 0 888 0 C888 550.44 888 1100.88 888 1668 C448.44 1668 8.88 1668 -444 1668 C-444 1447.89 -444 1227.78 -444 1001 C-297.48 1001 -150.96 1001 0 1001 C0 670.67 0 340.34 0 0 Z " fill="#9EC8E0" transform="translate(778,166)"/>
<path d="M0 0 C293.04 0 586.08 0 888 0 C888 220.11 888 440.22 888 667 C594.96 667 301.92 667 0 667 C0 446.89 0 226.78 0 0 Z " fill="#426B89" transform="translate(334,1167)"/>
<path d="M0 0 C146.52 0 293.04 0 444 0 C444 220.11 444 440.22 444 667 C297.48 667 150.96 667 0 667 C0 446.89 0 226.78 0 0 Z " fill="#6DA0BD" transform="translate(334,1167)"/>
</svg>
